<svg  id="Calque_1" data-name="Calque 1" xmlns="http://www.w3.org/2000/svg" width="100" height="100" viewBox="0 0 100 100">



  <title>Advans-Tunisie-icons</title>
  <path style="fill:#008237;" d="M27.2,13.1c-2,3.8-2.8,9.5-2.1,15.7s2.4,11.1,4.8,13.9h0c3.1,3.7,6.7,5.8,10.1,5.8h1.1a9,9,0,0,0,6-4l.3-.3.2.3a66.2,66.2,0,0,1,5.6,13.8,1.8,1.8,0,0,0,1.5,1.3h.1a1.6,1.6,0,0,0,1.5-1.1A37,37,0,0,1,60.6,50l.2-.4.2.4c1.9,3.3,4.2,4.3,5.8,4.6h1.3a10.8,10.8,0,0,0,7.5-3.6c4.1-4.3,5.6-16.2,2.8-22.2a1.2,1.2,0,0,0-.9-.8,1.3,1.3,0,0,0-1.2,0c-.1.1-.2.1-.2.2a22.1,22.1,0,0,1-8.2,3.5,21.8,21.8,0,0,0-7.2,2.8c-2.8,1.9-4.4,4.5-4.4,7.2A7.2,7.2,0,0,0,58.5,47h.2v.2a33.2,33.2,0,0,0-3.3,5.3l-.3.6-.2-.6a69.8,69.8,0,0,0-5.2-11.1v-.3h.3c3.5-1.9,5.6-4.3,6.3-7.3,1.1-4.6-1.8-8.8-3.5-10.9S45.4,18.4,41,17.3s-8-1.9-11.3-4.7a1.7,1.7,0,0,0-1.4-.3A1.5,1.5,0,0,0,27.2,13.1ZM62.3,37.4h.2a18.2,18.2,0,0,1,6.2-2.4,27.1,27.1,0,0,0,7.2-2.7h.3v.3c1.2,5.3-.3,13.6-3,16.5a8.1,8.1,0,0,1-5.2,2.6h-.7c-2.2-.4-3.5-2.7-4.3-4.6h.1a20.4,20.4,0,0,1,6.4-5.2h0a1.8,1.8,0,0,0,.8-.9,1.6,1.6,0,0,0-2.2-2h-.1a23.5,23.5,0,0,0-7.2,5.7l-.2.2-.2-.2a4.1,4.1,0,0,1-1-2.6A5.5,5.5,0,0,1,62.3,37.4ZM29.1,16.7v-.3h.3c3.5,2.3,7.3,3.2,10.7,4s7.6,1.8,9.9,4.5,3.4,5.8,2.9,8.1-2.1,3.9-4.9,5.3h-.2l-.2-.2A71.7,71.7,0,0,0,35.4,23.7a1.8,1.8,0,0,0-1.2-.5,2.2,2.2,0,0,0-1.1.5,1.9,1.9,0,0,0-.4,1.2,1.6,1.6,0,0,0,.5,1.1h.1A67.7,67.7,0,0,1,45.5,40.8h0c-1.4,2.6-3,4-4.9,4.2H40c-2.4,0-5.1-1.7-7.6-4.6S26.5,24.5,29.1,16.7Z"/>
  <path style="fill:#008237;" d="M26.4,56.3H13.9a1.6,1.6,0,0,0-1.6,1.6V81.4A1.6,1.6,0,0,0,13.9,83H26.4A1.6,1.6,0,0,0,28,81.4v-.6h.4l6.5,2.2.8.3c7.7,2.7,12.4,4.4,16.7,4.4s10.5-2.7,20.6-8c3.1-1.6,8-4.2,13.9-7.1a2.4,2.4,0,0,0,.8-.9,2,2,0,0,0-.1-1.3h0l-.3-.4-.4-.4c-3.1-3.1-4.9-4.8-9-3.6L64.2,69.9v-.3c-.1-2.8-1.8-5.5-5.1-5.5H47.5l-.3-.3c-1.7-1.6-4.6-4.4-11.4-4.4H28V57.9A1.6,1.6,0,0,0,26.4,56.3Zm9.4,6.3c5.5,0,7.6,2.1,9.1,3.5v.2l.8.7a1.7,1.7,0,0,0,1,.3H59.1c1.8,0,1.9,2.1,1.9,2.3a3.4,3.4,0,0,1-.5,1.7,1.7,1.7,0,0,1-1.4.7H42.2a1.5,1.5,0,0,0-1.6,1.3,1.5,1.5,0,0,0,.3,1.3,1.6,1.6,0,0,0,1.2.6h17a5.2,5.2,0,0,0,3.6-1.6H63l15.7-4.4c1.9-.5,2.6-.3,4.4,1.4l.3.3-.3.2L71.5,76.9c-9.9,5.3-14.3,7.6-19.2,7.6S44.2,83,36.7,80.4h0l-8.5-3H28V62.6Z"/>
</svg>
