<?xml version="1.0" encoding="utf-8"?>
<!-- Generator: Adobe Illustrator 21.1.0, SVG Export Plug-In . SVG Version: 6.00 Build 0)  -->
<svg version="1.1" id="Calque_1" xmlns="http://www.w3.org/2000/svg" xmlns:xlink="http://www.w3.org/1999/xlink" x="0px" y="0px"
	 width="100px" height="100px" viewBox="0 0 100 100" style="enable-background:new 0 0 100 100;" xml:space="preserve">

<g>
	<path  d="M77.2,85.1L77.2,85.1l-54.4,0c-6.5,0-9.6-3.5-11.1-6.4c-1.5-3.1-1.5-6.1-1.5-6.2l0-29.4
		c0-10,8.3-12.6,12.6-12.6h0l8.2,0l0-5c0-5.4,2.9-8,5.4-9.3c2.5-1.3,5.1-1.3,5.2-1.3h0l16.9,0c8.3,0,10.5,6.9,10.5,10.5l0,5l8.2,0
		c10,0,12.6,8.3,12.6,12.6l0,29.4C89.8,82.5,81.6,85.1,77.2,85.1 M13.4,56.5l0,15.9c0,1,0.3,9.4,9.4,9.4l54.4,0c1,0,9.4-0.3,9.4-9.4
		l0-17.5L61.3,62c-10.9,3-21.7,0.6-22.1,0.5L13.4,56.5z M13.4,53.2l26.5,6.1c0.1,0,10.5,2.3,20.5-0.4l26.2-7.2l0-8.6
		c0-1-0.3-9.4-9.4-9.4l-54.4,0c-1,0-9.4,0.3-9.4,9.4L13.4,53.2z M34.3,30.4l31.5,0l0-5c0-0.7-0.3-7.3-7.3-7.3l-16.9,0
		c-0.7,0-7.3,0.3-7.3,7.3L34.3,30.4z"/>
	<path  d="M50,57.3c1.6,0,2.8-1.3,2.8-2.8c0-1.6-1.3-2.8-2.8-2.8c-1.6,0-2.8,1.3-2.8,2.8C47.2,56,48.4,57.3,50,57.3"/>
</g>
</svg>
