<svg id="Calque_1" data-name="Calque 1" xmlns="http://www.w3.org/2000/svg" width="100" height="100" viewBox="0 0 100 100"><title>Advans-Tunisie-icons</title><path class="cls-1" d="M75.7,53.6a1.5,1.5,0,0,0-1.5,1.5V84.7a1,1,0,0,1-1.1,1H60.5v-19a4.1,4.1,0,0,0-4.1-4.1H43.6a4.1,4.1,0,0,0-4.1,4.1v19H26.8a1,1,0,0,1-1-1V55.1a1.5,1.5,0,0,0-1.5-1.5,1.6,1.6,0,0,0-1.6,1.5V84.7a4.1,4.1,0,0,0,4.1,4.1H73.1a4.1,4.1,0,0,0,4.2-4.1V55.1A1.6,1.6,0,0,0,75.7,53.6ZM42.5,85.7v-19a1,1,0,0,1,1.1-1H56.4a1,1,0,0,1,1.1,1v19Z"/><path class="cls-1" d="M84,44.4l-31.1-32a4.1,4.1,0,0,0-5.8,0L16,44.4a4.3,4.3,0,0,0-.9,4.6,4.2,4.2,0,0,0,3.8,2.5h.5a4.2,4.2,0,0,0,2.6-1l.3-.2L50,21.7,77.7,50.3l.3.2a4.2,4.2,0,0,0,2.6,1h.5A4.2,4.2,0,0,0,84.9,49,4.3,4.3,0,0,0,84,44.4Z"/><path class="cls-1" d="M55.1,56.7a4.2,4.2,0,0,0,4.2-4.1V43.5a4.2,4.2,0,0,0-4.2-4.1H44.9a4.2,4.2,0,0,0-4.2,4.1v9.1a4.2,4.2,0,0,0,4.2,4.1ZM43.8,52.6V43.5a1.1,1.1,0,0,1,1.1-1H55.1a1.1,1.1,0,0,1,1.1,1v9.1a1.1,1.1,0,0,1-1.1,1H44.9A1.1,1.1,0,0,1,43.8,52.6Z"/><path class="cls-1" d="M46.1,74.2H44.9a1.5,1.5,0,1,0,0,3h1.2a1.5,1.5,0,1,0,0-3Z"/></svg>