<?xml version="1.0" encoding="utf-8"?>
<!-- Generator: Adobe Illustrator 23.0.6, SVG Export Plug-In . SVG Version: 6.00 Build 0)  -->
<svg version="1.1" id="Calque_2" xmlns="http://www.w3.org/2000/svg" xmlns:xlink="http://www.w3.org/1999/xlink" x="0px" y="0px"
	 viewBox="0 0 140 50" style="enable-background:new 0 0 140 50;" xml:space="preserve">

<g>
	<path style="fill:#95C121;" d="M120.73,29.93h-0.82c-5.58-4.69-8.93-7.6-11.22-9.68c-1.78-1.61-3.05-2.77-5.17-4.93h-0.07
		c0.07,1.4,0.07,2.29,0.07,3.15v11.05v0.07h-3.11h-2.77v-0.07V17.61V2.66h0.82c5.82,4.93,9.24,7.87,11.53,10.03
		c1.54,1.44,3.08,2.87,4.82,4.65h0.07c-0.03-1.74-0.03-2.77-0.03-3.83V2.97V2.9h3.15h2.74v0.07v11.22V29.93z"/>
	<path style="fill:#FFCC00;" d="M139,22.54c0,4.45-3.76,7.46-8.97,7.46c-1.85,0-4.04-0.31-5.34-0.92c0.03-1.98,0.07-2.67,0.17-5.65h0.07
		c0.44,0.24,0.89,0.41,1.37,0.58c0.82,0.27,1.81,0.44,3.01,0.44c1.64,0,2.84-0.75,2.84-2.29c0-0.92-0.65-1.78-1.75-2.67
		c-1.06-0.86-1.95-1.68-2.67-2.4c-1.47-1.47-3.01-3.56-3.01-6.5c0-4,2.67-7.87,9.17-7.87c1.23,0,2.84,0.17,3.8,0.48
		c-0.07,2.09-0.1,2.67-0.17,5.61h-0.07c-0.34-0.14-0.89-0.31-1.33-0.41c-0.48-0.1-0.99-0.17-1.64-0.17c-1.81,0-3.11,0.86-3.11,2.33
		c0,0.89,0.38,1.44,0.96,2.09c0.58,0.65,1.75,1.57,3.18,2.91c2.12,1.98,3.49,3.93,3.49,6.95V22.54z"/>
	<path style="fill:#008237;" d="M90,17.58L83.53,2.81l-2.94,6.26c1.18,3.37,4.17,11.63,4.17,11.63l-9.63-0.02l-2.39,5.09h13.87
		c0.79,1.98,1.4,3.49,1.47,3.73v0.1h3.83h3.28v-0.1C95.1,29.25,94.45,27.74,90,17.58z"/>
	<path style="fill:#656564;" d="M50.06,15.73c0,5.1-2.19,9.1-6.06,11.63c-2.36,1.57-5.51,2.33-9.07,2.33c-1.71,0-3.35-0.03-4.45-0.07
		c-0.72-0.03-1.74-0.1-2.46-0.17v-0.03V17.61v-3.42V3.31V3.04c0.68-0.07,1.54-0.17,3.11-0.24c1.64-0.07,2.94-0.1,4.21-0.1
		c4.07,0,7.05,0.82,9.27,2.19c4.14,2.57,5.44,6.91,5.44,10.81V15.73z M43.49,15.87c0-2.43-0.82-4.62-2.53-5.99
		c-1.2-0.92-2.81-1.47-4.86-1.47c-0.65,0-1.3,0.07-1.75,0.1v15.26c0,0.07,0.03,0.07,0.07,0.07c0.51,0.07,1.06,0.1,1.57,0.1
		c1.54,0,3.05-0.44,4.31-1.33c1.85-1.33,3.18-3.52,3.18-6.71V15.87z"/>
	<path style="fill:#656564;" d="M63.61,30.1h-0.82l-7.63-15.91c-4.52-9.44-5.24-10.98-5.37-11.22V2.9h3.52H57v0.07
		c0.07,0.24,0.75,1.74,3.56,7.9c1.4,3.05,2.02,4.62,2.81,6.84h0.1c0.79-2.22,1.37-3.8,2.74-6.81c2.74-6.09,3.46-7.7,3.56-7.94V2.9
		h3.66h3.08v0.07c-0.1,0.24-0.79,1.78-5.3,11.22L63.61,30.1z"/>
	<path style="fill:#656564;" d="M9.04,25.76c-0.82,1.98-1.44,3.49-1.54,3.73v0.1H4.35H1v-0.1c0.1-0.24,0.79-1.75,5.3-11.91l6.71-15.16h0.89
		l6.64,15.16c4.45,10.16,5.1,11.67,5.2,11.91v0.1h-3.28h-3.83v-0.1c-0.07-0.24-0.68-1.75-1.47-3.73H9.04z M15.3,20.69v-0.07
		c-1.37-3.46-1.88-5.03-2.12-5.92h-0.03c-0.24,0.89-0.79,2.46-2.19,5.92v0.07H15.3z"/>
	<g id="PAYS_2_">
		<g>
			<path style="fill:#008237;" d="M96.76,38.31v1.43h-2.79v7.65h-1.66v-7.65h-2.79v-1.43H96.76z"/>
			<path style="fill:#008237;" d="M101.52,47.58c-0.62,0-1.15-0.09-1.6-0.27c-0.45-0.18-0.81-0.43-1.11-0.75c-0.29-0.32-0.51-0.7-0.65-1.14
				c-0.14-0.44-0.21-0.92-0.21-1.44v-5.67h1.66v5.51c0,0.41,0.05,0.76,0.14,1.05c0.09,0.29,0.22,0.53,0.39,0.71
				c0.17,0.18,0.37,0.32,0.6,0.41c0.23,0.09,0.49,0.13,0.78,0.13c0.29,0,0.55-0.04,0.79-0.13c0.24-0.09,0.44-0.22,0.61-0.41
				c0.17-0.18,0.3-0.42,0.39-0.71c0.09-0.29,0.14-0.64,0.14-1.05v-5.51h1.66v5.67c0,0.52-0.07,1-0.22,1.44
				c-0.14,0.44-0.36,0.82-0.65,1.14c-0.29,0.32-0.67,0.57-1.12,0.75C102.67,47.49,102.14,47.58,101.52,47.58z"/>
			<path style="fill:#008237;" d="M113.34,47.38c-0.3-0.5-0.63-1.03-1-1.6c-0.37-0.57-0.75-1.15-1.14-1.73c-0.39-0.58-0.79-1.14-1.2-1.69
				c-0.41-0.55-0.79-1.04-1.16-1.47v6.49h-1.62v-9.07h1.35c0.35,0.37,0.72,0.8,1.13,1.3c0.4,0.5,0.81,1.02,1.21,1.56
				c0.41,0.54,0.8,1.08,1.18,1.63c0.38,0.55,0.72,1.05,1.01,1.53v-6.02h1.64v9.07H113.34z"/>
			<path style="fill:#008237;" d="M116.91,38.31h1.65v9.07h-1.65V38.31z"/>
			<path style="fill:#008237;" d="M122.93,46.15c0.59,0,1.03-0.1,1.3-0.3c0.27-0.2,0.41-0.48,0.41-0.85c0-0.22-0.05-0.41-0.14-0.56
				c-0.09-0.16-0.22-0.3-0.39-0.43c-0.17-0.13-0.38-0.24-0.62-0.35c-0.24-0.11-0.52-0.22-0.84-0.32c-0.31-0.11-0.62-0.24-0.91-0.37
				c-0.29-0.14-0.55-0.3-0.77-0.5c-0.22-0.2-0.4-0.44-0.54-0.72c-0.14-0.28-0.2-0.62-0.2-1.01c0-0.82,0.28-1.46,0.85-1.93
				c0.57-0.47,1.34-0.7,2.32-0.7c0.57,0,1.07,0.06,1.51,0.19c0.44,0.13,0.79,0.26,1.04,0.41l-0.51,1.34
				c-0.3-0.17-0.62-0.29-0.98-0.38c-0.35-0.09-0.72-0.13-1.09-0.13c-0.45,0-0.79,0.09-1.04,0.27c-0.25,0.18-0.37,0.44-0.37,0.77
				c0,0.2,0.04,0.37,0.12,0.52c0.08,0.14,0.2,0.27,0.35,0.39c0.15,0.11,0.33,0.22,0.54,0.31c0.21,0.1,0.43,0.19,0.67,0.27
				c0.43,0.16,0.81,0.32,1.15,0.48c0.34,0.16,0.62,0.35,0.85,0.58c0.23,0.22,0.41,0.48,0.53,0.79c0.12,0.3,0.18,0.67,0.18,1.09
				c0,0.82-0.29,1.46-0.87,1.9c-0.58,0.45-1.43,0.67-2.55,0.67c-0.38,0-0.72-0.02-1.03-0.07c-0.31-0.05-0.58-0.11-0.82-0.18
				c-0.24-0.07-0.45-0.14-0.62-0.22c-0.17-0.07-0.31-0.14-0.42-0.2l0.48-1.35c0.24,0.13,0.55,0.26,0.96,0.39
				C121.88,46.09,122.37,46.15,122.93,46.15z"/>
			<path style="fill:#008237;" d="M127.8,38.31h1.65v9.07h-1.65V38.31z"/>
			<path style="fill:#008237;" d="M131.63,47.38v-9.07h5.83v1.4h-4.18v2.24h3.72v1.37h-3.72v2.66h4.49v1.4H131.63z"/>
		</g>
		<g>
			<rect x="1" y="42.55" class="st2" width="82.98" height="0.8"/>
		</g>
	</g>
</g>
</svg>
