<svg id="Calque_1" data-name="Calque 1" xmlns="http://www.w3.org/2000/svg" width="100" height="100" viewBox="0 0 100 100"><title>Advans-Tunisie-icons</title><path class="cls-1" d="M94.9,67.7a6.7,6.7,0,0,0-5.7-6.6v-19l4.5-1.4h0a2.3,2.3,0,0,0,1.7-2.4A2.4,2.4,0,0,0,93.7,36L51.5,23.6a7.2,7.2,0,0,0-4.1,0L6.3,36a2.4,2.4,0,0,0-1.7,2.6,2.5,2.5,0,0,0,1.8,2.2l18.8,6V64.2l.4.4c.3.4,7.6,9.8,24.4,9.8S74.1,65,74.4,64.6l.4-.4V46.6l12.5-3.9V61.1a6.8,6.8,0,0,0-5.8,6.6,6.9,6.9,0,0,0,3.9,6.1l-2.5,7.7a1.1,1.1,0,0,0,.7,1.2h0a.9.9,0,0,0,1.2-.6l2.5-7.8H89l2.5,7.8a.9.9,0,0,0,1.2.6h0a.9.9,0,0,0,.6-1.2l-2.4-7.7A6.6,6.6,0,0,0,94.9,67.7ZM47.2,53.9a8.2,8.2,0,0,0,4.4,0l19.6-6.1v8.4c-2.4,2.3-9.1,7.6-21.2,7.6s-18.8-5.3-21.2-7.6V47.9Zm1.1-3.5-37.6-12L48.4,27a3.8,3.8,0,0,1,2.1,0L89.2,38.4,50.5,50.5A3.4,3.4,0,0,1,48.3,50.4Z"/></svg>