<?xml version="1.0" encoding="UTF-8"?>
<svg version="1.1" xmlns="http://www.w3.org/2000/svg" width="240" height="240">
<path d="M0 0 C79.2 0 158.4 0 240 0 C240 79.2 240 158.4 240 240 C160.8 240 81.6 240 0 240 C0 160.8 0 81.6 0 0 Z " fill="#FEFEFE" transform="translate(0,0)"/>
<path d="M0 0 C2.57250977 1.00219727 2.57250977 1.00219727 4.22509766 3.52197266 C4.72259521 4.68204834 5.22009277 5.84212402 5.73266602 7.03735352 C6.02109879 7.69582779 6.30953156 8.35430206 6.60670471 9.0327301 C7.61438374 11.34810746 8.59271022 13.67489452 9.57250977 16.00219727 C10.34691595 17.80084638 11.12286968 19.59882978 11.90014648 21.39624023 C14.13978911 26.59321646 16.3526701 31.80121449 18.55889893 37.01245117 C20.82281298 42.35938291 23.09431739 47.70308718 25.36527252 53.0470314 C26.15883003 54.91463504 26.9520835 56.7823676 27.74530029 58.65011597 C33.53472568 72.27946298 39.36286779 85.89215439 45.19750977 99.50219727 C45.7031546 100.68197144 46.20879944 101.86174561 46.72976685 103.07727051 C53.11881055 117.982075 59.52351122 132.87986387 65.99682617 147.74829102 C66.45234863 148.79500977 66.90787109 149.84172852 67.37719727 150.92016602 C67.94929932 152.23150513 67.94929932 152.23150513 68.53295898 153.56933594 C68.87601074 154.37218018 69.2190625 155.17502441 69.57250977 156.00219727 C69.95294434 156.86498291 70.33337891 157.72776855 70.7253418 158.61669922 C71.83947718 161.75393751 71.43877941 163.82587522 70.57250977 167.00219727 C67.48317717 168.54686356 64.21801851 168.18599676 60.82641602 168.20532227 C60.05949936 168.21102234 59.2925827 168.21672241 58.50242615 168.22259521 C56.87923564 168.23204587 55.25602595 168.23857946 53.6328125 168.24243164 C51.14817948 168.25214578 48.66437073 168.28317073 46.17993164 168.31469727 C44.60376468 168.32122653 43.02759181 168.3264773 41.45141602 168.33032227 C40.70759171 168.34266907 39.9637674 168.35501587 39.19740295 168.36773682 C34.08054682 168.34561116 34.08054682 168.34561116 31.70776367 166.74169922 C30.45398332 164.82058416 29.4544823 162.94316237 28.52954102 160.84204102 C28.17827148 160.04862305 27.82700195 159.25520508 27.46508789 158.43774414 C27.10866211 157.61338867 26.75223633 156.7890332 26.38500977 155.93969727 C25.83296875 154.69736328 25.83296875 154.69736328 25.26977539 153.42993164 C22.57250977 147.27976568 22.57250977 147.27976568 22.57250977 145.00219727 C21.01942612 144.98673607 21.01942612 144.98673607 19.43496704 144.97096252 C9.69344239 144.87334909 -0.04801667 144.77062661 -9.78943443 144.66285801 C-14.79799545 144.60761407 -19.8065623 144.55419172 -24.81518555 144.50488281 C-29.64571963 144.45726096 -34.47618129 144.40491895 -39.30662918 144.34925652 C-41.15265737 144.32882307 -42.99870542 144.31011165 -44.84476852 144.29312325 C-47.42368526 144.26910111 -50.00246445 144.23904362 -52.58129883 144.20751953 C-53.35021957 144.20176407 -54.11914032 144.19600861 -54.91136169 144.19007874 C-60.19938591 144.11624943 -60.19938591 144.11624943 -62.42749023 143.00219727 C-61.99421182 135.5756532 -60.02382862 129.82080373 -56.98999023 123.06469727 C-56.58200195 122.12045898 -56.17401367 121.1762207 -55.75366211 120.20336914 C-52.72384706 113.29855409 -52.72384706 113.29855409 -50.42749023 111.00219727 C-48.09896851 110.72372437 -48.09896851 110.72372437 -45.15161133 110.68334961 C-43.50012589 110.65354507 -43.50012589 110.65354507 -41.8152771 110.62313843 C-40.62254181 110.61158722 -39.42980652 110.60003601 -38.20092773 110.58813477 C-36.98297516 110.56876862 -35.76502258 110.54940247 -34.51016235 110.52944946 C-30.60767694 110.46951512 -26.70516224 110.42321256 -22.80249023 110.37719727 C-20.16185214 110.33903028 -17.52122666 110.29997932 -14.88061523 110.26000977 C-8.39635198 110.16380223 -1.91201316 110.07879551 4.57250977 110.00219727 C4.06980636 104.71503304 3.23852986 100.53644933 1.05297852 95.64282227 C0.5304248 94.45744873 0.00787109 93.2720752 -0.53051758 92.05078125 C-0.80933777 91.43145721 -1.08815796 90.81213318 -1.37542725 90.17404175 C-2.25434858 88.22027998 -3.11923154 86.26082515 -3.98071289 84.29931641 C-6.08450261 79.51524478 -8.20792255 74.73996711 -10.33453369 69.96600342 C-12.06774889 66.07354248 -13.78998385 62.17661392 -15.49642944 58.27233887 C-16.2895979 56.46900898 -17.09829455 54.67253467 -17.90722656 52.8762207 C-18.62495239 51.23508301 -18.62495239 51.23508301 -19.35717773 49.56079102 C-19.78240723 48.60487061 -20.20763672 47.6489502 -20.64575195 46.6640625 C-22.33567137 40.90978662 -19.18090144 35.72675376 -16.90014648 30.49047852 C-16.37667885 29.27632515 -16.37667885 29.27632515 -15.84263611 28.03764343 C-15.10615265 26.33297467 -14.36721372 24.62936492 -13.62597656 22.92675781 C-12.49069281 20.31631274 -11.36583213 17.70154962 -10.24194336 15.08618164 C-9.52446466 13.42901192 -8.8063863 11.77210166 -8.08764648 10.11547852 C-7.75112564 9.33215652 -7.4146048 8.54883453 -7.06788635 7.74177551 C-3.68238169 0.00333314 -3.68238169 0.00333314 0 0 Z " fill="#015E25" transform="translate(84.427490234375,35.997802734375)"/>
<path d="M0 0 C2.47607422 0.12084961 2.47607422 0.12084961 5 1 C6.34033203 2.72485352 6.34033203 2.72485352 7.3828125 5.06640625 C8.00397949 6.43176514 8.00397949 6.43176514 8.63769531 7.82470703 C9.08725586 8.87255371 9.53681641 9.92040039 10 11 C10.51401367 12.16772949 11.02802734 13.33545898 11.55761719 14.53857422 C13.36100311 18.65847983 15.11796686 22.7976683 16.875 26.9375 C17.53328326 28.48199153 18.19190001 30.02634095 18.85083008 31.57055664 C20.21873053 34.77696181 21.58520358 37.98396961 22.95068359 41.19140625 C25.86988366 48.0452254 28.80718476 54.89127648 31.74395752 61.73757935 C33.31318607 65.39632113 34.8811409 69.05560868 36.44921875 72.71484375 C37.0551697 74.1287461 37.66112662 75.54264588 38.26708984 76.95654297 C40.67456055 82.57397461 40.67456055 82.57397461 43.08203125 88.19140625 C43.56752441 89.32416992 44.05301758 90.45693359 44.55322266 91.62402344 C45.51268991 93.8628883 46.47200148 96.10181989 47.43115234 98.34082031 C49.8972093 104.09688347 52.36549706 109.85196839 54.83816528 115.60519409 C56.17038432 118.70533287 57.5016121 121.80589689 58.83276367 124.90649414 C59.47097571 126.39236882 60.1096256 127.87805553 60.7487793 129.36352539 C62.53908739 133.52463977 64.31990157 137.68959417 66.08892822 141.85980225 C66.72021472 143.34275669 67.35519363 144.82414265 67.99310303 146.30426025 C68.9869772 148.61207384 69.96909796 150.9245988 70.94921875 153.23828125 C71.25535599 153.94228561 71.56149323 154.64628998 71.87690735 155.37162781 C74.69258234 162.08103023 74.69258234 162.08103023 74 166 C70.33236683 168.44508878 68.36568225 168.29885724 64 168.3125 C62.14375 168.33763672 62.14375 168.33763672 60.25 168.36328125 C56.6385092 167.95959298 56.1906979 167.69223237 54 165 C52.92756653 162.96601868 52.92756653 162.96601868 51.92895508 160.59106445 C51.54524246 159.68876099 51.16152985 158.78645752 50.76618958 157.85681152 C50.35479233 156.86894653 49.94339508 155.88108154 49.51953125 154.86328125 C48.85802315 153.30015198 48.85802315 153.30015198 48.18315125 151.70544434 C46.71973109 148.24384912 45.26631181 144.77814018 43.8125 141.3125 C42.52553438 138.26386116 41.2368298 135.215964 39.94769859 132.16824055 C39.6859868 131.54945624 39.42427502 130.93067194 39.15463257 130.2931366 C38.89102306 129.66987173 38.62741356 129.04660686 38.35581589 128.40445518 C37.54355715 126.48291007 36.73228724 124.56095026 35.92129517 122.63887024 C30.66963134 110.19497275 25.35327611 97.77932446 20.02520752 85.36795044 C18.50705078 81.82893624 16.99208098 78.28857404 15.47802734 74.74780273 C11.07143486 64.44796632 6.64425421 54.15939199 2.12109375 43.91015625 C1.05551848 41.48108101 -0.0088861 39.05149707 -1.07275391 36.62167358 C-2.02968998 34.44947709 -3.00262215 32.28497295 -3.9765625 30.12036133 C-4.53860769 28.83842453 -5.09986254 27.55614079 -5.66015625 26.2734375 C-6.38150757 24.65574463 -6.38150757 24.65574463 -7.11743164 23.00537109 C-8.75264896 17.4370377 -6.75015421 12.91727819 -4.5625 7.75 C-4.13066406 6.71359375 -3.69882813 5.6771875 -3.25390625 4.609375 C-2 2 -2 2 0 0 Z " fill="#44A052" transform="translate(113,36)"/>
<path d="M0 0 C3.0933483 0.72173162 4.56964559 1.36799854 6.37350464 4.01707458 C6.90187424 5.26437096 6.90187424 5.26437096 7.44091797 6.53686523 C7.8531662 7.48616409 8.26541443 8.43546295 8.69015503 9.41352844 C9.11982574 10.45139999 9.54949646 11.48927155 9.9921875 12.55859375 C10.68636276 14.1766114 10.68636276 14.1766114 11.39456177 15.82731628 C12.90449314 19.35728672 14.38970863 22.89710009 15.875 26.4375 C16.91373204 28.87813686 17.95410524 31.31807588 18.99609375 33.75732422 C21.0660998 38.60995341 23.12685463 43.46632916 25.17871094 48.32666016 C27.53963296 53.91771952 29.92025589 59.49985896 32.3203125 65.07421875 C32.63680756 65.80952316 32.95330261 66.54482758 33.27938843 67.30241394 C33.89009305 68.72116952 34.50083998 70.13990688 35.1116333 71.55862427 C36.59016397 74.9977445 38.06079831 78.44023195 39.53125 81.8828125 C42.23788514 88.21863156 44.94891589 94.55254985 47.66429138 100.8846283 C49.22637726 104.52738065 50.78706581 108.17071376 52.34399414 111.81567383 C55.26837344 118.6577411 58.2083588 125.4919803 61.19747925 132.30606079 C62.61030982 135.52911921 64.01517729 138.75562016 65.41943359 141.98242188 C66.09172428 143.52111307 66.76792177 145.05810391 67.44824219 146.59326172 C68.39077207 148.72075331 69.31973201 150.85371051 70.24609375 152.98828125 C70.52654037 153.611689 70.806987 154.23509674 71.09593201 154.87739563 C72.7398209 158.71018594 73.5573707 161.83580142 73 166 C69.37916926 168.41388716 67.37638924 168.39136061 63.0625 168.5 C61.83660156 168.5515625 60.61070312 168.603125 59.34765625 168.65625 C56 168 56 168 53.98730469 165.3972168 C51.9949658 161.99139424 50.3904349 158.62220191 48.85546875 154.98828125 C48.5692012 154.31560715 48.28293365 153.64293304 47.98799133 152.94987488 C47.04887328 150.73975269 46.11826642 148.5261507 45.1875 146.3125 C44.52278298 144.74451699 43.85740634 143.17681346 43.19140625 141.609375 C41.80913055 138.35475417 40.42969297 135.09895246 39.05224609 131.84228516 C36.19989088 125.10446334 33.3130914 118.38146761 30.42642212 111.65829468 C28.86597264 108.02290025 27.30812738 104.38639013 25.75 100.75 C25.12501227 99.29166141 24.50001228 97.83332807 23.875 96.375 C20.125 87.625 20.125 87.625 19.18771362 85.43795776 C18.56204082 83.97808172 17.93632868 82.51822253 17.31057739 81.05838013 C15.75804986 77.43628681 14.20618372 73.8139131 12.65576172 70.19091797 C9.72519449 63.3447978 6.7876081 56.50191061 3.82830811 49.66815186 C2.42825624 46.43403922 1.03173901 43.19840587 -0.36450195 39.96264648 C-1.03216633 38.41809795 -1.70156874 36.87429942 -2.37280273 35.33129883 C-3.30240192 33.19408729 -4.22602298 31.05438267 -5.1484375 28.9140625 C-5.42372284 28.28549347 -5.69900818 27.65692444 -5.9826355 27.00930786 C-8.55876004 21.00040615 -9.58739003 17.54689375 -7.1015625 11.32617188 C-6.82054687 10.66166016 -6.53953125 9.99714844 -6.25 9.3125 C-5.98445312 8.63638672 -5.71890625 7.96027344 -5.4453125 7.26367188 C-4.00110382 3.74078419 -3.23959687 2.15973125 0 0 Z " fill="#FFCC02" transform="translate(145,36)"/>
</svg>
