<?xml version="1.0" encoding="utf-8"?>
<!-- Generator: Adobe Illustrator 21.1.0, SVG Export Plug-In . SVG Version: 6.00 Build 0)  -->
<svg version="1.1" id="Calque_1" xmlns="http://www.w3.org/2000/svg" xmlns:xlink="http://www.w3.org/1999/xlink" x="0px" y="0px"
	 width="100px" height="100px" viewBox="0 0 100 100" style="enable-background:new 0 0 100 100;" xml:space="preserve">

<g>
	<path class="st0" d="M91.2,87.7h-21c-1,0-1.8-0.8-1.8-1.8V14.1c0-1,0.8-1.8,1.8-1.8h21c1,0,1.8,0.8,1.8,1.8v71.8
		C93,86.9,92.2,87.7,91.2,87.7 M72.1,84.1h17.4V15.9H72.1V84.1z M60.4,87.7h-21c-1,0-1.8-0.8-1.8-1.8V39.6c0-1,0.8-1.8,1.8-1.8h21
		c1,0,1.8,0.8,1.8,1.8v46.3C62.2,86.9,61.4,87.7,60.4,87.7 M41.2,84.1h17.4V41.3H41.2V84.1z M29.7,87.7h-21c-1,0-1.8-0.8-1.8-1.8
		V62.2c0-1,0.8-1.8,1.8-1.8h21c1,0,1.8,0.8,1.8,1.8v23.7C31.5,86.9,30.7,87.7,29.7,87.7 M10.5,84.1h17.4V63.9H10.5V84.1z"/>
</g>
</svg>
